<svg width="34" height="35" viewBox="0 0 34 35" fill="none" xmlns="http://www.w3.org/2000/svg">
<path d="M16.5654 12.0464C16.3574 12.234 16.2446 12.4633 16.2326 12.7403C16.2205 13.0173 16.3113 13.2514 16.516 13.4542C16.6923 13.6619 16.9219 13.7634 17.2163 13.7589L19.0823 13.8132L13.123 19.5039C12.915 19.6915 12.8135 19.9212 12.8127 20.1984C12.812 20.4757 12.9141 20.71 13.1243 20.9186C13.3006 21.1263 13.53 21.2391 13.8012 21.2567C14.0724 21.2743 14.3233 21.1895 14.5313 21.0019L20.4906 15.3112L20.4479 17.1661C20.4361 17.4318 20.5266 17.6772 20.72 17.8797C20.9189 18.088 21.1541 18.1953 21.4255 18.2015C21.8327 18.2109 21.9311 18.117 22.1394 17.9181C22.3366 17.7076 22.4268 17.4777 22.4101 17.217L22.5655 12.9316C22.566 12.6657 22.4757 12.409 22.2887 12.1783C22.0727 11.9753 21.8204 11.8733 21.5431 11.8725L17.2669 11.8079C16.996 11.779 16.7622 11.8585 16.5654 12.0464Z" fill="white"/>
</svg>
