<svg width="32" height="32" viewBox="0 0 32 32" fill="none" xmlns="http://www.w3.org/2000/svg">
<path d="M5.33341 28C4.60008 28 3.97253 27.7391 3.45075 27.2173C2.92897 26.6955 2.66764 26.0675 2.66675 25.3333V10.6666C2.66675 9.93329 2.92808 9.30574 3.45075 8.78396C3.97341 8.26218 4.60097 8.00085 5.33341 7.99996H10.6667V5.33329C10.6667 4.59996 10.9281 3.9724 11.4507 3.45063C11.9734 2.92885 12.601 2.66751 13.3334 2.66663H18.6667C19.4001 2.66663 20.0281 2.92796 20.5507 3.45063C21.0734 3.97329 21.3343 4.60085 21.3334 5.33329V7.99996H26.6667C27.4001 7.99996 28.0281 8.26129 28.5507 8.78396C29.0734 9.30663 29.3343 9.93418 29.3334 10.6666V25.3333C29.3334 26.0666 29.0725 26.6946 28.5507 27.2173C28.029 27.74 27.401 28.0008 26.6667 28H5.33341ZM13.3334 7.99996H18.6667V5.33329H13.3334V7.99996ZM26.6667 20H20.0001V22.6666H12.0001V20H5.33341V25.3333H26.6667V20ZM14.6667 20H17.3334V17.3333H14.6667V20ZM5.33341 17.3333H12.0001V14.6666H20.0001V17.3333H26.6667V10.6666H5.33341V17.3333Z" fill="#3ED5A8"/>
</svg>
