<svg width="32" height="33" viewBox="0 0 32 33" fill="none" xmlns="http://www.w3.org/2000/svg">
<path d="M25.3333 24.5V28.5C25.3333 28.8536 25.1928 29.1927 24.9428 29.4428C24.6927 29.6928 24.3536 29.8333 24 29.8333H11.3333C10.9797 29.8333 10.6405 29.6928 10.3905 29.4428C10.1404 29.1927 9.99996 28.8536 9.99996 28.5V24.5M9.99996 24.5H25.3373C27.5466 24.5 29.3333 22.7093 29.3333 20.5V7.16663C29.3333 6.10576 28.9119 5.08834 28.1617 4.3382C27.4116 3.58805 26.3942 3.16663 25.3333 3.16663H11.3333C10.2724 3.16663 9.25501 3.58805 8.50487 4.3382C7.75472 5.08834 7.33329 6.10576 7.33329 7.16663V10.5H2.66663V15.8333C2.66663 19.1666 5.33329 24.5 9.99996 24.5Z" stroke="#3ED5A8" stroke-width="2.66667" stroke-miterlimit="2" stroke-linecap="round" stroke-linejoin="round"/>
<path d="M7.33325 9.83325V15.1666" stroke="#3ED5A8" stroke-width="2.66667" stroke-linecap="round"/>
</svg>
