<svg width="32" height="33" viewBox="0 0 32 33" fill="none" xmlns="http://www.w3.org/2000/svg">
<path d="M16 7.16667C15.4696 7.16667 14.9609 7.37738 14.5858 7.75245C14.2107 8.12753 14 8.63623 14 9.16667C14 9.6971 14.2107 10.2058 14.5858 10.5809C14.9609 10.956 15.4696 11.1667 16 11.1667C16.5304 11.1667 17.0391 10.956 17.4142 10.5809C17.7893 10.2058 18 9.6971 18 9.16667C18 8.63623 17.7893 8.12753 17.4142 7.75245C17.0391 7.37738 16.5304 7.16667 16 7.16667ZM11.3333 9.16667C11.3333 8.55383 11.454 7.947 11.6886 7.38081C11.9231 6.81462 12.2668 6.30017 12.7002 5.86683C13.1335 5.43349 13.648 5.08975 14.2141 4.85523C14.7803 4.62071 15.3872 4.5 16 4.5C16.6128 4.5 17.2197 4.62071 17.7859 4.85523C18.352 5.08975 18.8665 5.43349 19.2998 5.86683C19.7332 6.30017 20.0769 6.81462 20.3114 7.38081C20.546 7.947 20.6667 8.55383 20.6667 9.16667C20.6667 10.4043 20.175 11.5913 19.2998 12.4665C18.4247 13.3417 17.2377 13.8333 16 13.8333C14.7623 13.8333 13.5753 13.3417 12.7002 12.4665C11.825 11.5913 11.3333 10.4043 11.3333 9.16667ZM6.66666 11.1667C6.31304 11.1667 5.9739 11.3071 5.72385 11.5572C5.47381 11.8072 5.33333 12.1464 5.33333 12.5C5.33333 12.8536 5.47381 13.1928 5.72385 13.4428C5.9739 13.6929 6.31304 13.8333 6.66666 13.8333C7.02029 13.8333 7.35942 13.6929 7.60947 13.4428C7.85952 13.1928 8 12.8536 8 12.5C8 12.1464 7.85952 11.8072 7.60947 11.5572C7.35942 11.3071 7.02029 11.1667 6.66666 11.1667ZM2.66666 12.5C2.66666 11.4391 3.08809 10.4217 3.83824 9.67157C4.58838 8.92143 5.6058 8.5 6.66666 8.5C7.72753 8.5 8.74495 8.92143 9.49509 9.67157C10.2452 10.4217 10.6667 11.4391 10.6667 12.5C10.6667 13.5609 10.2452 14.5783 9.49509 15.3284C8.74495 16.0786 7.72753 16.5 6.66666 16.5C5.6058 16.5 4.58838 16.0786 3.83824 15.3284C3.08809 14.5783 2.66666 13.5609 2.66666 12.5ZM24 12.5C24 12.1464 24.1405 11.8072 24.3905 11.5572C24.6406 11.3071 24.9797 11.1667 25.3333 11.1667C25.687 11.1667 26.0261 11.3071 26.2761 11.5572C26.5262 11.8072 26.6667 12.1464 26.6667 12.5C26.6667 12.8536 26.5262 13.1928 26.2761 13.4428C26.0261 13.6929 25.687 13.8333 25.3333 13.8333C24.9797 13.8333 24.6406 13.6929 24.3905 13.4428C24.1405 13.1928 24 12.8536 24 12.5ZM25.3333 8.5C24.2725 8.5 23.255 8.92143 22.5049 9.67157C21.7548 10.4217 21.3333 11.4391 21.3333 12.5C21.3333 13.5609 21.7548 14.5783 22.5049 15.3284C23.255 16.0786 24.2725 16.5 25.3333 16.5C26.3942 16.5 27.4116 16.0786 28.1618 15.3284C28.9119 14.5783 29.3333 13.5609 29.3333 12.5C29.3333 11.4391 28.9119 10.4217 28.1618 9.67157C27.4116 8.92143 26.3942 8.5 25.3333 8.5ZM10.6667 19.8333C10.6667 17.9933 12.16 16.5 14 16.5H18C19.84 16.5 21.3333 17.9933 21.3333 19.8333V23.1667C21.3333 24.5812 20.7714 25.9377 19.7712 26.9379C18.771 27.9381 17.4145 28.5 16 28.5C14.5855 28.5 13.229 27.9381 12.2288 26.9379C11.2286 25.9377 10.6667 24.5812 10.6667 23.1667V19.8333ZM14 19.1667C13.8232 19.1667 13.6536 19.2369 13.5286 19.3619C13.4036 19.487 13.3333 19.6565 13.3333 19.8333V23.1667C13.3333 23.8739 13.6143 24.5522 14.1144 25.0523C14.6145 25.5524 15.2928 25.8333 16 25.8333C16.7072 25.8333 17.3855 25.5524 17.8856 25.0523C18.3857 24.5522 18.6667 23.8739 18.6667 23.1667V19.8333C18.6667 19.6565 18.5964 19.487 18.4714 19.3619C18.3464 19.2369 18.1768 19.1667 18 19.1667H14ZM8 19.8333C8 19.0627 8.144 18.3267 8.41066 17.652L5.128 18.532C4.27456 18.7608 3.54687 19.319 3.10484 20.0841C2.66281 20.8491 2.54261 21.7584 2.77066 22.612L3.288 24.5453C3.46932 25.2219 3.78216 25.8562 4.20864 26.4119C4.63513 26.9676 5.16691 27.4338 5.7736 27.784C6.3803 28.1341 7.05003 28.3613 7.74455 28.4526C8.43906 28.5439 9.14476 28.4975 9.82133 28.316L9.86666 28.3027C9.25152 27.5698 8.77282 26.7326 8.45333 25.8307C7.86406 25.8337 7.29038 25.6414 6.82192 25.2839C6.35346 24.9264 6.01661 24.4238 5.864 23.8547L5.34666 21.9213C5.30107 21.7505 5.32518 21.5686 5.4137 21.4156C5.50221 21.2626 5.64788 21.151 5.81866 21.1053L8 20.5187V19.8333ZM22.176 28.3133L22.1333 28.3053C22.7413 27.5773 23.224 26.7427 23.5467 25.8307C24.1355 25.8331 24.7086 25.6406 25.1765 25.2831C25.6444 24.9257 25.9808 24.4234 26.1333 23.8547L26.648 21.9213C26.6936 21.7505 26.6695 21.5686 26.581 21.4156C26.4925 21.2626 26.3468 21.151 26.176 21.1053L24 20.5213V19.8333C24 19.0627 23.856 18.3293 23.592 17.652L26.8667 18.532C27.7201 18.7608 28.4478 19.319 28.8898 20.0841C29.3319 20.8491 29.452 21.7584 29.224 22.612L28.7067 24.5453C28.5253 25.2219 28.2125 25.8562 27.786 26.4119C27.3595 26.9676 26.8278 27.4338 26.2211 27.784C25.6144 28.1341 24.9446 28.3613 24.2501 28.4526C23.5556 28.5439 22.8499 28.4975 22.1733 28.316" fill="#3ED5A8"/>
</svg>
