<svg width="32" height="33" viewBox="0 0 32 33" fill="none" xmlns="http://www.w3.org/2000/svg">
<g clip-path="url(#clip0_4211_344)">
<path d="M11 9.49998C11 8.55731 10.284 2.46265 15.9973 2.46265C21.692 2.46265 21 8.68531 21 9.49998M24.736 11.196C24.7245 10.7625 24.5522 10.3487 24.2525 10.0352C23.9528 9.72173 23.5472 9.53095 23.1146 9.49998H8.88398C8.45132 9.53038 8.04555 9.72103 7.74597 10.0347C7.44638 10.3483 7.27452 10.7624 7.26398 11.196L5.00931 25.4066C4.96929 25.6517 4.98014 25.9024 5.04118 26.143C5.10221 26.3837 5.21213 26.6092 5.36409 26.8056C5.51605 27.002 5.7068 27.1649 5.92447 27.2844C6.14214 27.4039 6.38206 27.4772 6.62931 27.5H25.3693C25.6167 27.4774 25.8567 27.4042 26.0746 27.2848C26.2924 27.1654 26.4833 27.0024 26.6354 26.806C26.7875 26.6097 26.8975 26.3841 26.9587 26.1433C27.0198 25.9026 27.0307 25.6518 26.9906 25.4066L24.736 11.196Z" stroke="#3ED5A8" stroke-width="2" stroke-linecap="round" stroke-linejoin="round"/>
<path d="M18.2 14.5H15.4893C15.0739 14.5003 14.6715 14.6451 14.3512 14.9096C14.0309 15.1742 13.8126 15.5419 13.7338 15.9498C13.6549 16.3577 13.7205 16.7803 13.9192 17.1451C14.1178 17.5099 14.4373 17.7943 14.8227 17.9493L17.5747 19.0493C17.9609 19.2039 18.2813 19.4881 18.4806 19.8533C18.68 20.2184 18.7458 20.6416 18.6669 21.0501C18.588 21.4586 18.3692 21.8268 18.0482 22.0914C17.7272 22.356 17.324 22.5005 16.908 22.5H14.2M16.2 14.5V13.5M16.2 23.5V22.5M1 5.5V3.5C1 2.96957 1.21071 2.46086 1.58579 2.08579C1.96086 1.71071 2.46957 1.5 3 1.5H5M31 5.5V3.5C31 2.96957 30.7893 2.46086 30.4142 2.08579C30.0391 1.71071 29.5304 1.5 29 1.5H27M1 27.5V29.5C1 30.0304 1.21071 30.5391 1.58579 30.9142C1.96086 31.2893 2.46957 31.5 3 31.5H5M31 27.5V29.5C31 30.0304 30.7893 30.5391 30.4142 30.9142C30.0391 31.2893 29.5304 31.5 29 31.5H27" stroke="#3ED5A8" stroke-width="2" stroke-linecap="round" stroke-linejoin="round"/>
</g>
<defs>
<clipPath id="clip0_4211_344">
<rect width="32" height="32" fill="white" transform="translate(0 0.5)"/>
</clipPath>
</defs>
</svg>
