<svg width="32" height="33" viewBox="0 0 32 33" fill="none" xmlns="http://www.w3.org/2000/svg">
<path d="M15.9999 9.93228C12.453 9.93228 9.59053 12.7948 9.59053 16.3417C9.59053 19.8885 12.453 22.751 15.9999 22.751C19.5468 22.751 22.4093 19.8885 22.4093 16.3417C22.4093 12.7948 19.5468 9.93228 15.9999 9.93228ZM15.9999 20.5073C13.7062 20.5073 11.8343 18.6354 11.8343 16.3417C11.8343 14.0479 13.7062 12.176 15.9999 12.176C18.2937 12.176 20.1655 14.0479 20.1655 16.3417C20.1655 18.6354 18.2937 20.5073 15.9999 20.5073ZM22.6718 8.17603C21.8437 8.17603 21.1749 8.84478 21.1749 9.6729C21.1749 10.501 21.8437 11.1698 22.6718 11.1698C23.4999 11.1698 24.1687 10.5042 24.1687 9.6729C24.1689 9.47626 24.1304 9.2815 24.0552 9.09978C23.9801 8.91806 23.8698 8.75295 23.7308 8.6139C23.5917 8.47485 23.4266 8.3646 23.2449 8.28947C23.0632 8.21433 22.8684 8.17578 22.6718 8.17603ZM28.4937 16.3417C28.4937 14.6167 28.5093 12.9073 28.4124 11.1854C28.3155 9.1854 27.8593 7.4104 26.3968 5.9479C24.9312 4.48228 23.1593 4.02915 21.1593 3.93228C19.4343 3.8354 17.7249 3.85103 16.003 3.85103C14.278 3.85103 12.5687 3.8354 10.8468 3.93228C8.84678 4.02915 7.07178 4.4854 5.60928 5.9479C4.14365 7.41353 3.69053 9.1854 3.59365 11.1854C3.49678 12.9104 3.5124 14.6198 3.5124 16.3417C3.5124 18.0635 3.49678 19.776 3.59365 21.4979C3.69053 23.4979 4.14678 25.2729 5.60928 26.7354C7.0749 28.201 8.84678 28.6542 10.8468 28.751C12.5718 28.8479 14.2812 28.8323 16.003 28.8323C17.728 28.8323 19.4374 28.8479 21.1593 28.751C23.1593 28.6542 24.9343 28.1979 26.3968 26.7354C27.8624 25.2698 28.3155 23.4979 28.4124 21.4979C28.5124 19.776 28.4937 18.0667 28.4937 16.3417ZM25.7437 23.7104C25.5155 24.2792 25.2405 24.7042 24.7999 25.1417C24.3593 25.5823 23.9374 25.8573 23.3687 26.0854C21.7249 26.7385 17.8218 26.5917 15.9999 26.5917C14.178 26.5917 10.2718 26.7385 8.62803 26.0885C8.05928 25.8604 7.63428 25.5854 7.19678 25.1448C6.75615 24.7042 6.48115 24.2823 6.25303 23.7135C5.60303 22.0667 5.7499 18.1635 5.7499 16.3417C5.7499 14.5198 5.60303 10.6135 6.25303 8.96978C6.48115 8.40103 6.75615 7.97603 7.19678 7.53853C7.6374 7.10103 8.05928 6.8229 8.62803 6.59478C10.2718 5.94478 14.178 6.09165 15.9999 6.09165C17.8218 6.09165 21.728 5.94478 23.3718 6.59478C23.9405 6.8229 24.3655 7.0979 24.803 7.53853C25.2437 7.97915 25.5187 8.40103 25.7468 8.96978C26.3968 10.6135 26.2499 14.5198 26.2499 16.3417C26.2499 18.1635 26.3968 22.0667 25.7437 23.7104Z" fill="white"/>
</svg>
