<svg width="32" height="33" viewBox="0 0 32 33" fill="none" xmlns="http://www.w3.org/2000/svg">
<path d="M28 6.34167H4C3.46957 6.34167 2.96086 6.55239 2.58579 6.92746C2.21071 7.30253 2 7.81124 2 8.34167V24.3417C2 24.8721 2.21071 25.3808 2.58579 25.7559C2.96086 26.131 3.46957 26.3417 4 26.3417H28C28.5304 26.3417 29.0391 26.131 29.4142 25.7559C29.7893 25.3808 30 24.8721 30 24.3417V8.34167C30 7.81124 29.7893 7.30253 29.4142 6.92746C29.0391 6.55239 28.5304 6.34167 28 6.34167ZM25.8 8.34167L16 15.1217L6.2 8.34167H25.8ZM4 24.3417V9.25167L15.43 17.1617C15.5974 17.2778 15.7963 17.34 16 17.34C16.2037 17.34 16.4026 17.2778 16.57 17.1617L28 9.25167V24.3417H4Z" fill="white"/>
</svg>
