<svg width="32" height="33" viewBox="0 0 32 33" fill="none" xmlns="http://www.w3.org/2000/svg">
<path d="M28 7.40663V23.1666C27.9997 24.3406 27.6121 25.4817 26.8972 26.413C26.1824 27.3442 25.1802 28.0136 24.0462 28.3173C22.9121 28.6209 21.7096 28.5419 20.625 28.0925C19.5404 27.6431 18.6345 26.8484 18.0476 25.8316C17.4607 24.8148 17.2257 23.6328 17.379 22.4688C17.5324 21.3049 18.0655 20.2241 18.8956 19.394C19.7258 18.5639 20.8067 18.0309 21.9707 17.8777C23.1346 17.7245 24.3166 17.9596 25.3333 18.5466V12.7413L12 14.9626V24.5C12 24.58 11.9933 24.6573 11.98 24.732C12.0757 25.7573 11.8296 26.7854 11.2801 27.6563C10.7305 28.5271 9.90832 29.1918 8.94163 29.5466C7.97494 29.9015 6.91802 29.9266 5.93555 29.6181C4.95308 29.3096 4.10024 28.6848 3.50989 27.8411C2.91954 26.9974 2.62484 25.9821 2.67171 24.9534C2.71858 23.9247 3.10438 22.9404 3.76901 22.1538C4.43364 21.3672 5.33976 20.8226 6.34621 20.6047C7.35266 20.3869 8.40291 20.508 9.33333 20.9493V9.6293C9.33326 8.99804 9.55712 8.38723 9.96509 7.90553C10.3731 7.42383 10.9387 7.10247 11.5613 6.99863L24.8947 4.77729C25.2766 4.7136 25.6679 4.73384 26.0412 4.83663C26.4145 4.93942 26.761 5.12228 27.0565 5.3725C27.352 5.62272 27.5895 5.9343 27.7524 6.28558C27.9154 6.63686 27.9999 7.0194 28 7.40663ZM7.33333 23.1666C6.8029 23.1666 6.29419 23.3773 5.91912 23.7524C5.54405 24.1275 5.33333 24.6362 5.33333 25.1666C5.33333 25.6971 5.54405 26.2058 5.91912 26.5808C6.29419 26.9559 6.8029 27.1666 7.33333 27.1666C7.86377 27.1666 8.37247 26.9559 8.74755 26.5808C9.12262 26.2058 9.33333 25.6971 9.33333 25.1666C9.33333 24.6362 9.12262 24.1275 8.74755 23.7524C8.37247 23.3773 7.86377 23.1666 7.33333 23.1666ZM22.6667 20.5C21.9594 20.5 21.2811 20.7809 20.781 21.281C20.281 21.7811 20 22.4594 20 23.1666C20 23.8739 20.281 24.5521 20.781 25.0522C21.2811 25.5523 21.9594 25.8333 22.6667 25.8333C23.3739 25.8333 24.0522 25.5523 24.5523 25.0522C25.0524 24.5521 25.3333 23.8739 25.3333 23.1666C25.3333 22.4594 25.0524 21.7811 24.5523 21.281C24.0522 20.7809 23.3739 20.5 22.6667 20.5ZM25.3333 7.40663L12 9.6293V12.26L25.3333 10.0373V7.40663Z" fill="#3ED5A8"/>
</svg>
