<svg width="32" height="32" viewBox="0 0 32 32" fill="none" xmlns="http://www.w3.org/2000/svg">
<path d="M16.0001 12C14.7112 12 13.6112 11.5444 12.7001 10.6333C11.789 9.72218 11.3334 8.62218 11.3334 7.33329C11.3334 6.0444 11.789 4.9444 12.7001 4.03329C13.6112 3.12218 14.7112 2.66663 16.0001 2.66663C17.289 2.66663 18.389 3.12218 19.3001 4.03329C20.2112 4.9444 20.6667 6.0444 20.6667 7.33329C20.6667 8.62218 20.2112 9.72218 19.3001 10.6333C18.389 11.5444 17.289 12 16.0001 12ZM16.0001 9.33329C16.5556 9.33329 17.0281 9.13907 17.4174 8.75063C17.8067 8.36218 18.001 7.88974 18.0001 7.33329C17.9992 6.77685 17.805 6.30485 17.4174 5.91729C17.0299 5.52974 16.5574 5.33507 16.0001 5.33329C15.4427 5.33151 14.9707 5.52618 14.5841 5.91729C14.1974 6.3084 14.0027 6.7804 14.0001 7.33329C13.9974 7.88618 14.1921 8.35863 14.5841 8.75063C14.9761 9.14263 15.4481 9.33685 16.0001 9.33329ZM14.1001 27.4333L8.00008 21.3333C7.55564 20.8888 7.2223 20.3888 7.00008 19.8333C6.77786 19.2777 6.66675 18.6666 6.66675 18C6.66675 16.6888 7.11697 15.5831 8.01741 14.6826C8.91786 13.7822 10.0232 13.3324 11.3334 13.3333C11.9779 13.3333 12.5725 13.4555 13.1174 13.7C13.6623 13.9444 14.1565 14.2888 14.6001 14.7333L16.0001 16.1333L17.4001 14.7333C17.8445 14.2888 18.3392 13.9444 18.8841 13.7C19.429 13.4555 20.0232 13.3333 20.6667 13.3333C21.9779 13.3333 23.0836 13.7835 23.9841 14.684C24.8845 15.5844 25.3343 16.6897 25.3334 18C25.3334 18.6666 25.2223 19.2777 25.0001 19.8333C24.7779 20.3888 24.4445 20.8888 24.0001 21.3333L17.9001 27.4333C17.6334 27.7 17.3334 27.9 17.0001 28.0333C16.6667 28.1666 16.3334 28.2333 16.0001 28.2333C15.6667 28.2333 15.3334 28.1666 15.0001 28.0333C14.6667 27.9 14.3667 27.7 14.1001 27.4333ZM16.0001 25.5333L22.0667 19.4666C22.2667 19.2666 22.417 19.0391 22.5174 18.784C22.6179 18.5288 22.6676 18.2675 22.6667 18C22.6667 17.4666 22.4779 17 22.1001 16.6C21.7223 16.2 21.2445 16 20.6667 16C20.4001 16 20.1614 16.0391 19.9507 16.1173C19.7401 16.1955 19.5343 16.3342 19.3334 16.5333L16.0001 19.8666L12.6667 16.5333C12.5334 16.4 12.3614 16.2777 12.1507 16.1666C11.9401 16.0555 11.6676 16 11.3334 16C10.7556 16 10.2779 16.2 9.90008 16.6C9.5223 17 9.33341 17.4666 9.33341 18C9.33341 18.2666 9.38897 18.5168 9.50008 18.7506C9.61119 18.9844 9.75564 19.2008 9.93341 19.4L16.0001 25.5333Z" fill="#3ED5A8"/>
</svg>
