<svg width="16" height="16" viewBox="0 0 16 16" fill="none" xmlns="http://www.w3.org/2000/svg">
<path d="M2.55538 2.66667H5.54872L6.51338 5.07867L4.96338 6.112C4.8721 6.1729 4.79727 6.25539 4.74552 6.35215C4.69377 6.44891 4.6667 6.55694 4.66672 6.66667C4.66872 6.72934 4.66672 6.66734 4.66672 6.66734V6.68134C4.66705 6.71115 4.66838 6.74094 4.67072 6.77067C4.67427 6.82578 4.68205 6.89911 4.69405 6.99067C4.72005 7.17067 4.77005 7.41867 4.86738 7.71067C5.06338 8.29734 5.44738 9.05667 6.19538 9.80467C6.94338 10.5527 7.70272 10.9367 8.28872 11.1327C8.58138 11.23 8.82872 11.2793 9.01005 11.306C9.11233 11.3209 9.2154 11.3298 9.31872 11.3327L9.32738 11.3333H9.33272C9.33272 11.3333 9.40738 11.3293 9.33338 11.3333C9.45716 11.3333 9.57847 11.2987 9.68373 11.2336C9.789 11.1685 9.87405 11.0754 9.92938 10.9647L10.376 10.0713L13.3334 10.5647V13.4447C11.926 13.648 8.12472 13.8487 5.13805 10.862C2.15138 7.87534 2.35138 4.07334 2.55538 2.66667ZM6.04872 6.99067L7.25338 6.188C7.50788 6.01825 7.69626 5.76615 7.78693 5.47398C7.87761 5.18181 7.86506 4.86735 7.75138 4.58334L6.78672 2.17134C6.68772 1.92394 6.51687 1.71188 6.29621 1.56251C6.07554 1.41314 5.81518 1.33332 5.54872 1.33334H2.52072C1.91472 1.33334 1.34472 1.754 1.24538 2.41134C1.01872 3.906 0.711382 8.32067 4.19538 11.8047C7.67938 15.2887 12.094 14.9807 13.5887 14.7547C14.246 14.6547 14.6667 14.0853 14.6667 13.4793V10.5647C14.6668 10.249 14.5548 9.94364 14.3508 9.70279C14.1469 9.46194 13.864 9.30126 13.5527 9.24934L10.5954 8.75667C10.3141 8.70972 10.0252 8.75418 9.77106 8.88353C9.51692 9.01288 9.31095 9.2203 9.18338 9.47534L8.95272 9.93734C8.8712 9.91706 8.79047 9.89371 8.71072 9.86734C8.29738 9.73 7.72338 9.44734 7.13805 8.862C6.55272 8.27667 6.27005 7.70267 6.13272 7.28867C6.10034 7.19068 6.07253 7.09124 6.04938 6.99067H6.04872Z" fill="white"/>
</svg>
